<?xml version="1.0" encoding="UTF-8" standalone="no"?>
<!-- Created with Inkscape (http://www.inkscape.org/) -->

<svg
   xmlns:ns0="http://www.iki.fi/pav/software/textext/"
   xmlns:dc="http://purl.org/dc/elements/1.1/"
   xmlns:cc="http://creativecommons.org/ns#"
   xmlns:rdf="http://www.w3.org/1999/02/22-rdf-syntax-ns#"
   xmlns:svg="http://www.w3.org/2000/svg"
   xmlns="http://www.w3.org/2000/svg"
   xmlns:xlink="http://www.w3.org/1999/xlink"
   xmlns:sodipodi="http://sodipodi.sourceforge.net/DTD/sodipodi-0.dtd"
   xmlns:inkscape="http://www.inkscape.org/namespaces/inkscape"
   sodipodi:docname="fig07_04-CC_reduc_ahorro.svg"
   inkscape:version="0.48.2 r9819"
   version="1.1"
   id="svg2"
   height="800"
   width="1000">
  <sodipodi:namedview
     id="base"
     pagecolor="#ffffff"
     bordercolor="#666666"
     borderopacity="1.0"
     inkscape:pageopacity="0.0"
     inkscape:pageshadow="2"
     inkscape:zoom="0.64"
     inkscape:cx="710.56943"
     inkscape:cy="393.07728"
     inkscape:document-units="mm"
     inkscape:current-layer="layer1"
     showgrid="true"
     borderlayer="false"
     inkscape:showpageshadow="true"
     gridtolerance="5"
     guidetolerance="20"
     inkscape:window-width="1440"
     inkscape:window-height="852"
     inkscape:window-x="0"
     inkscape:window-y="0"
     inkscape:window-maximized="1"
     inkscape:snap-bbox="false"
     objecttolerance="20"
     guidecolor="#0092ff"
     guideopacity="0.49803922"
     guidehicolor="#ff5200"
     guidehiopacity="0.49803922"
     inkscape:snap-from-guide="true"
     inkscape:snap-global="true"
     inkscape:object-paths="true"
     inkscape:snap-nodes="true"
     inkscape:snap-intersection-paths="true"
     inkscape:object-nodes="true">
    <inkscape:grid
       type="xygrid"
       id="grid3139"
       empspacing="2"
       visible="true"
       enabled="true"
       snapvisiblegridlinesonly="true"
       dotted="true"
       spacingx="2px"
       spacingy="2px" />
  </sodipodi:namedview>
  <defs
     id="defs4">
    <marker
       inkscape:stockid="SquareM"
       orient="auto"
       refY="0.0"
       refX="0.0"
       id="SquareM"
       style="overflow:visible">
      <path
         id="path4100"
         d="M -5.0,-5.0 L -5.0,5.0 L 5.0,5.0 L 5.0,-5.0 L -5.0,-5.0 z "
         style="fill-rule:evenodd;stroke:#000000;stroke-width:1.0pt;marker-start:none"
         transform="scale(0.4)" />
    </marker>
    <marker
       inkscape:stockid="DotM"
       orient="auto"
       refY="0.0"
       refX="0.0"
       id="DotM"
       style="overflow:visible">
      <path
         id="path4091"
         d="M -2.5,-1.0 C -2.5,1.7600000 -4.7400000,4.0 -7.5,4.0 C -10.260000,4.0 -12.5,1.7600000 -12.5,-1.0 C -12.5,-3.7600000 -10.260000,-6.0 -7.5,-6.0 C -4.7400000,-6.0 -2.5,-3.7600000 -2.5,-1.0 z "
         style="fill-rule:evenodd;stroke:#000000;stroke-width:1.0pt;marker-start:none;marker-end:none"
         transform="scale(0.4) translate(7.4, 1)" />
    </marker>
    <marker
       inkscape:stockid="DotL"
       orient="auto"
       refY="0.0"
       refX="0.0"
       id="DotL"
       style="overflow:visible">
      <path
         id="path4088"
         d="M -2.5,-1.0 C -2.5,1.7600000 -4.7400000,4.0 -7.5,4.0 C -10.260000,4.0 -12.5,1.7600000 -12.5,-1.0 C -12.5,-3.7600000 -10.260000,-6.0 -7.5,-6.0 C -4.7400000,-6.0 -2.5,-3.7600000 -2.5,-1.0 z "
         style="fill-rule:evenodd;stroke:#000000;stroke-width:1.0pt;marker-start:none;marker-end:none"
         transform="scale(0.8) translate(7.4, 1)" />
    </marker>
    <marker
       inkscape:stockid="Arrow2Mstart"
       orient="auto"
       refY="0"
       refX="0"
       id="Arrow2Mstart"
       style="overflow:visible">
      <path
         id="path3968"
         style="font-size:12px;fill-rule:evenodd;stroke-width:0.625;stroke-linejoin:round"
         d="M 8.7185878,4.0337352 -2.2072895,0.01601326 8.7185884,-4.0017078 c -1.7454984,2.3720609 -1.7354408,5.6174519 -6e-7,8.035443 z"
         transform="scale(0.6,0.6)"
         inkscape:connector-curvature="0" />
    </marker>
    <marker
       inkscape:stockid="Arrow2Lstart"
       orient="auto"
       refY="0"
       refX="0"
       id="Arrow2Lstart"
       style="overflow:visible">
      <path
         id="path3962"
         style="font-size:12px;fill-rule:evenodd;stroke-width:0.625;stroke-linejoin:round"
         d="M 8.7185878,4.0337352 -2.2072895,0.01601326 8.7185884,-4.0017078 c -1.7454984,2.3720609 -1.7354408,5.6174519 -6e-7,8.035443 z"
         transform="matrix(1.1,0,0,1.1,1.1,0)"
         inkscape:connector-curvature="0" />
    </marker>
    <marker
       inkscape:stockid="Arrow2Lend"
       orient="auto"
       refY="0"
       refX="0"
       id="Arrow2Lend"
       style="overflow:visible">
      <path
         id="path3965"
         style="font-size:12px;fill-rule:evenodd;stroke-width:0.625;stroke-linejoin:round"
         d="M 8.7185878,4.0337352 -2.2072895,0.01601326 8.7185884,-4.0017078 c -1.7454984,2.3720609 -1.7354408,5.6174519 -6e-7,8.035443 z"
         transform="matrix(-1.1,0,0,-1.1,-1.1,0)"
         inkscape:connector-curvature="0" />
    </marker>
    <marker
       inkscape:stockid="Arrow1Lend"
       orient="auto"
       refY="0"
       refX="0"
       id="Arrow1Lend"
       style="overflow:visible">
      <path
         id="path3947"
         d="M 0,0 5,-5 -12.5,0 5,5 0,0 z"
         style="fill-rule:evenodd;stroke:#000000;stroke-width:1pt;marker-start:none"
         transform="matrix(-0.8,0,0,-0.8,-10,0)"
         inkscape:connector-curvature="0" />
    </marker>
    <linearGradient
       inkscape:collect="always"
       x1="569.60999"
       y1="-177.59"
       x2="664.28998"
       gradientUnits="userSpaceOnUse"
       xlink:href="#linearGradient4059"
       y2="23.834999"
       id="linearGradient4115" />
    <linearGradient
       inkscape:collect="always"
       x1="755.56"
       y1="-89.764999"
       x2="777.15997"
       gradientUnits="userSpaceOnUse"
       xlink:href="#linearGradient4059"
       y2="33.893002"
       id="linearGradient4105" />
    <linearGradient
       inkscape:collect="always"
       x1="724.09003"
       y1="-37.654999"
       x2="745.84998"
       gradientUnits="userSpaceOnUse"
       xlink:href="#linearGradient4059"
       y2="38.518002"
       id="linearGradient4095" />
    <linearGradient
       inkscape:collect="always"
       x1="684.07001"
       y1="-74.555"
       x2="712.14001"
       gradientUnits="userSpaceOnUse"
       xlink:href="#linearGradient4059"
       y2="43.498001"
       id="linearGradient4085" />
    <linearGradient
       inkscape:collect="always"
       x1="642.41998"
       y1="21.427"
       x2="674.62"
       gradientUnits="userSpaceOnUse"
       xlink:href="#linearGradient4059"
       y2="49.040001"
       id="linearGradient4075" />
    <linearGradient
       inkscape:collect="always"
       x1="587.46997"
       y1="28.305"
       x2="618.77002"
       gradientUnits="userSpaceOnUse"
       xlink:href="#linearGradient4059"
       y2="58.431"
       id="linearGradient4065" />
    <linearGradient
       id="linearGradient4059">
      <stop
         offset="0"
         style="stop-color:#f8f8f8"
         id="stop4061" />
      <stop
         offset="1"
         style="stop-color:#ffffff;stop-opacity:0"
         id="stop4063" />
    </linearGradient>
  </defs>
  <metadata
     id="metadata7">
    <rdf:RDF>
      <cc:Work
         rdf:about="">
        <dc:format>image/svg+xml</dc:format>
        <dc:type
           rdf:resource="http://purl.org/dc/dcmitype/StillImage" />
        <dc:title></dc:title>
        <cc:license
           rdf:resource="" />
        <dc:creator>
          <cc:Agent>
            <dc:title>Alvaro Carril</dc:title>
          </cc:Agent>
        </dc:creator>
      </cc:Work>
    </rdf:RDF>
  </metadata>
  <g
     inkscape:label="Capa 1"
     inkscape:groupmode="layer"
     id="layer1"
     transform="translate(0,-252.36215)">
    <text
       xml:space="preserve"
       style="font-size:40px;font-style:normal;font-weight:normal;text-align:start;line-height:125%;letter-spacing:0px;word-spacing:0px;text-anchor:start;fill:#000000;fill-opacity:1;stroke:none;font-family:Sans"
       x="968"
       y="972.36212"
       id="text3000"
       sodipodi:linespacing="125%"><tspan
         sodipodi:role="line"
         id="tspan3002"
         x="968"
         y="972.36212">$S,I$</tspan></text>
    <g
       transform="translate(-265.99998,248.15642)"
       id="g3043">
      <g
         style="font-style:normal;font-variant:normal;font-weight:normal;font-stretch:normal;letter-spacing:normal;word-spacing:normal;text-anchor:start;fill:none;stroke:#000000;stroke-linecap:butt;stroke-linejoin:miter;stroke-miterlimit:10.43299961;stroke-opacity:1;stroke-dasharray:none;stroke-dashoffset:0"
         id="content"
         transform="matrix(1.1428571,0,0,-1.1428571,-200,600)"
         xml:space="preserve"
         stroke-miterlimit="10.433"
         font-style="normal"
         font-variant="normal"
         font-weight="normal"
         font-stretch="normal"
         font-size-adjust="none"
         letter-spacing="normal"
         word-spacing="normal" />    </g>
    <path
       style="fill:none;stroke:#000000;stroke-width:3;stroke-linecap:square;stroke-linejoin:miter;stroke-miterlimit:4;stroke-opacity:1;stroke-dasharray:none;marker-start:none;marker-mid:none;marker-end:none"
       d="m 48,956.36215 0,-651.99997 0,-20"
       id="path5133"
       inkscape:connector-curvature="0"
       sodipodi:nodetypes="ccc" />
    <path
       style="fill:none;stroke:#000000;stroke-width:3.00099999999999989;stroke-linecap:square;stroke-linejoin:miter;stroke-miterlimit:4;stroke-opacity:1;stroke-dasharray:none;marker-end:none"
       d="m 48,956.36215 660,0 252,-1e-4"
       id="path6263"
       inkscape:connector-curvature="0"
       sodipodi:nodetypes="ccc" />
    <text
       xml:space="preserve"
       style="font-size:40px;font-style:normal;font-weight:normal;text-align:center;line-height:125%;letter-spacing:0px;word-spacing:0px;text-anchor:middle;fill:#000000;fill-opacity:1;stroke:none;font-family:Sans"
       x="48"
       y="268.36215"
       id="text6469"
       sodipodi:linespacing="125%"
       inkscape:transform-center-x="21.847174"><tspan
         sodipodi:role="line"
         id="tspan6471"
         x="48"
         y="268.36215"
         style="text-align:center;text-anchor:middle">$r$</tspan></text>
    <path
       style="fill:none;stroke:#000000;stroke-width:1px;stroke-linecap:butt;stroke-linejoin:miter;stroke-opacity:1"
       d="m 880,544 0,0"
       id="path3025"
       inkscape:connector-curvature="0"
       transform="translate(0,252.36215)"
       sodipodi:nodetypes="cc" />
    <text
       xml:space="preserve"
       style="font-size:40px;font-style:normal;font-weight:normal;line-height:125%;letter-spacing:0px;word-spacing:0px;fill:#000000;fill-opacity:1;stroke:none;font-family:Sans"
       x="840"
       y="868.36212"
       id="text3931"
       sodipodi:linespacing="125%"><tspan
         sodipodi:role="line"
         x="840"
         y="868.36212"
         id="tspan3853">$I$</tspan></text>
    <text
       xml:space="preserve"
       style="font-size:40px;font-style:normal;font-weight:normal;text-align:end;line-height:125%;letter-spacing:0px;word-spacing:0px;text-anchor:end;fill:#000000;fill-opacity:1;stroke:none;font-family:Sans"
       x="40"
       y="728.36212"
       id="text3050"
       sodipodi:linespacing="125%"><tspan
         sodipodi:role="line"
         id="tspan3052"
         x="40"
         y="728.36212">$r^*$</tspan></text>
    <text
       sodipodi:linespacing="125%"
       id="text4142"
       y="300.36215"
       x="704"
       style="font-size:40px;font-style:normal;font-weight:normal;text-align:start;line-height:125%;letter-spacing:0px;word-spacing:0px;text-anchor:start;fill:#000000;fill-opacity:1;stroke:none;font-family:Sans"
       xml:space="preserve"><tspan
         y="300.36215"
         x="704"
         id="tspan4144"
         sodipodi:role="line">$S_2$</tspan></text>
    <path
       sodipodi:nodetypes="cccc"
       style="fill:none;stroke:#000000;stroke-width:3;stroke-linecap:butt;stroke-linejoin:miter;stroke-miterlimit:4;stroke-opacity:1;stroke-dasharray:none"
       d="m 832,844.36215 -336,-336 m 0,0 192,-192"
       id="path3863"
       inkscape:connector-curvature="0" />
    <path
       style="fill:none;stroke:#000000;stroke-width:3;stroke-linecap:butt;stroke-linejoin:miter;stroke-opacity:1;stroke-miterlimit:4;stroke-dasharray:none"
       d="M 496,256 160,592"
       id="path3865"
       inkscape:connector-curvature="0"
       transform="translate(0,252.36215)" />
    <path
       style="fill:none;stroke:#000000;stroke-width:3;stroke-linecap:butt;stroke-linejoin:miter;stroke-opacity:1;stroke-miterlimit:4;stroke-dasharray:none"
       d="M 496,256 288,48"
       id="path3873"
       inkscape:connector-curvature="0"
       transform="translate(0,252.36215)" />
    <path
       style="fill:none;stroke:#000000;stroke-width:3.00118113;stroke-linecap:butt;stroke-linejoin:miter;stroke-miterlimit:4;stroke-opacity:1;stroke-dasharray:3.00118113,9.00354338;stroke-dashoffset:5.10200791;marker-end:none"
       d="m 288,716.36215 320,0 96,0"
       id="path3879"
       inkscape:connector-curvature="0"
       sodipodi:nodetypes="ccc" />
    <path
       style="fill:none;stroke:#000000;stroke-width:3.00118113;stroke-linecap:butt;stroke-linejoin:miter;stroke-miterlimit:4;stroke-opacity:1;stroke-dasharray:3.00118113,9.00354338;stroke-dashoffset:7.50295281;marker-start:none;marker-end:none"
       d="m 288,716.36215 -240,0"
       id="path3881"
       inkscape:connector-curvature="0"
       sodipodi:nodetypes="cc" />
    <path
       inkscape:connector-curvature="0"
       id="path3050"
       d="m 336,844.36215 528,-528"
       style="fill:none;stroke:#000000;stroke-width:3;stroke-linecap:butt;stroke-linejoin:miter;stroke-miterlimit:4;stroke-opacity:1;stroke-dasharray:none" />
    <g
       transform="matrix(3,0,0,3,-601.21094,315.51449)"
       ns0:text="\\[\n\\underbrace{\\rule{2.7cm}{0pt}}\n\\]\n"
       ns0:preamble=""
       id="g4089">
      <defs
         id="defs4091">
        <g
           id="g4093">
          <symbol
             style="overflow:visible"
             overflow="visible"
             id="textext-22cfab0a-0">
            <path
               inkscape:connector-curvature="0"
               style="stroke:none"
               d=""
               id="path4096" />
          </symbol>
          <symbol
             style="overflow:visible"
             overflow="visible"
             id="textext-22cfab0a-1">
            <path
               inkscape:connector-curvature="0"
               style="stroke:none"
               d="m 4.578125,-0.921875 c 0,-0.21875 0,-0.28125 -0.125,-0.28125 -0.609375,0 -1.609375,-0.078125 -2.5,-0.515625 C 0.875,-2.265625 0.46875,-2.890625 0.21875,-3.28125 0.1875,-3.328125 0.125,-3.328125 0,-3.328125 c -0.234375,0 -0.234375,0.015625 -0.234375,0.25 l 0,0.171875 C 1.109375,-0.46875 3.359375,0 4.375,0 4.578125,0 4.578125,-0.015625 4.578125,-0.28125 z"
               id="path4099" />
          </symbol>
          <symbol
             style="overflow:visible"
             overflow="visible"
             id="textext-22cfab0a-2">
            <path
               inkscape:connector-curvature="0"
               style="stroke:none"
               d="M 4.71875,1.71875 C 3.375,-0.734375 1.125,-1.203125 0.109375,-1.203125 c -0.203125,0 -0.203125,0.015625 -0.203125,0.28125 l 0,0.640625 c 0,0.234375 0,0.28125 0.140625,0.28125 0.59375,0.015625 1.59375,0.09375 2.484375,0.53125 1.078125,0.53125 1.484375,1.15625 1.734375,1.546875 0.03125,0.0625 0.09375,0.0625 0.21875,0.0625 C 4.71875,2.140625 4.71875,2.125 4.71875,1.875 z"
               id="path4102" />
          </symbol>
          <symbol
             style="overflow:visible"
             overflow="visible"
             id="textext-22cfab0a-3">
            <path
               inkscape:connector-curvature="0"
               style="stroke:none"
               d="m 4.578125,-0.921875 c 0,-0.265625 0,-0.28125 -0.203125,-0.28125 -1.015625,0 -3.265625,0.484375 -4.609375,2.921875 l 0,0.15625 c 0,0.25 0,0.265625 0.234375,0.265625 0.1875,0 0.203125,-0.015625 0.25,-0.09375 C 1.0625,0.75 2.4375,0.046875 4.46875,0 4.578125,0 4.578125,-0.0625 4.578125,-0.28125 z"
               id="path4105" />
          </symbol>
          <symbol
             style="overflow:visible"
             overflow="visible"
             id="textext-22cfab0a-4">
            <path
               inkscape:connector-curvature="0"
               style="stroke:none"
               d="m 4.71875,-3.078125 c 0,-0.234375 0,-0.25 -0.234375,-0.25 -0.1875,0 -0.203125,0.015625 -0.25,0.078125 -0.8125,1.3125 -2.1875,2.015625 -4.21875,2.046875 -0.109375,0 -0.109375,0.078125 -0.109375,0.28125 l 0,0.640625 c 0,0.265625 0,0.28125 0.203125,0.28125 C 1.125,0 3.375,-0.484375 4.71875,-2.90625 z"
               id="path4108" />
          </symbol>
        </g>
      </defs>
      <g
         id="textext-22cfab0a-5">
        <g
           style="fill:#000000;fill-opacity:1"
           id="g4111">
          <use
             height="800"
             width="1000"
             xlink:href="#textext-22cfab0a-1"
             x="357.01999"
             y="138.94901"
             id="use4113" />
        </g>
        <path
           inkscape:connector-curvature="0"
           style="fill:#000000;fill-opacity:1;fill-rule:nonzero;stroke:none"
           d="m 361.50391,138.94922 29.30078,0 0,-1.19531 -29.30078,0 z"
           id="path4115" />
        <g
           style="fill:#000000;fill-opacity:1"
           id="g4117">
          <use
             height="800"
             width="1000"
             xlink:href="#textext-22cfab0a-2"
             x="390.80399"
             y="138.94901"
             id="use4119" />
          <use
             height="800"
             width="1000"
             xlink:href="#textext-22cfab0a-3"
             x="395.28717"
             y="138.94901"
             id="use4121" />
        </g>
        <path
           inkscape:connector-curvature="0"
           style="fill:#000000;fill-opacity:1;fill-rule:nonzero;stroke:none"
           d="m 399.76953,138.94922 29.30078,0 0,-1.19531 -29.30078,0 z"
           id="path4123" />
        <g
           style="fill:#000000;fill-opacity:1"
           id="g4125">
          <use
             height="800"
             width="1000"
             xlink:href="#textext-22cfab0a-4"
             x="429.07199"
             y="138.94901"
             id="use4127" />
        </g>
      </g>
    </g>
    <text
       sodipodi:linespacing="125%"
       id="text4200"
       y="300.36215"
       x="880"
       style="font-size:40px;font-style:normal;font-weight:normal;line-height:125%;letter-spacing:0px;word-spacing:0px;fill:#000000;fill-opacity:1;stroke:none;font-family:Sans"
       xml:space="preserve"><tspan
         y="300.36215"
         x="880"
         id="tspan4202"
         sodipodi:role="line">$S_1$</tspan></text>
    <g
       id="g4733"
       ns0:preamble=""
       ns0:text="\\[\n\\underbrace{\\rule{4.8cm}{0pt}}\n\\]\n"
       transform="matrix(3,0,0,3,-690.50783,381.51449)">
      <defs
         id="defs4735">
        <g
           id="g4737">
          <symbol
             id="textext-1b6b682b-0"
             overflow="visible"
             style="overflow:visible">
            <path
               id="path4740"
               d=""
               style="stroke:none"
               inkscape:connector-curvature="0" />
          </symbol>
          <symbol
             id="textext-1b6b682b-1"
             overflow="visible"
             style="overflow:visible">
            <path
               id="path4743"
               d="m 4.578125,-0.921875 c 0,-0.21875 0,-0.28125 -0.125,-0.28125 -0.609375,0 -1.609375,-0.078125 -2.5,-0.515625 C 0.875,-2.265625 0.46875,-2.890625 0.21875,-3.28125 0.1875,-3.328125 0.125,-3.328125 0,-3.328125 c -0.234375,0 -0.234375,0.015625 -0.234375,0.25 l 0,0.171875 C 1.109375,-0.46875 3.359375,0 4.375,0 4.578125,0 4.578125,-0.015625 4.578125,-0.28125 z"
               style="stroke:none"
               inkscape:connector-curvature="0" />
          </symbol>
          <symbol
             id="textext-1b6b682b-2"
             overflow="visible"
             style="overflow:visible">
            <path
               id="path4746"
               d="M 4.71875,1.71875 C 3.375,-0.734375 1.125,-1.203125 0.109375,-1.203125 c -0.203125,0 -0.203125,0.015625 -0.203125,0.28125 l 0,0.640625 c 0,0.234375 0,0.28125 0.140625,0.28125 0.59375,0.015625 1.59375,0.09375 2.484375,0.53125 1.078125,0.53125 1.484375,1.15625 1.734375,1.546875 0.03125,0.0625 0.09375,0.0625 0.21875,0.0625 C 4.71875,2.140625 4.71875,2.125 4.71875,1.875 z"
               style="stroke:none"
               inkscape:connector-curvature="0" />
          </symbol>
          <symbol
             id="textext-1b6b682b-3"
             overflow="visible"
             style="overflow:visible">
            <path
               id="path4749"
               d="m 4.578125,-0.921875 c 0,-0.265625 0,-0.28125 -0.203125,-0.28125 -1.015625,0 -3.265625,0.484375 -4.609375,2.921875 l 0,0.15625 c 0,0.25 0,0.265625 0.234375,0.265625 0.1875,0 0.203125,-0.015625 0.25,-0.09375 C 1.0625,0.75 2.4375,0.046875 4.46875,0 4.578125,0 4.578125,-0.0625 4.578125,-0.28125 z"
               style="stroke:none"
               inkscape:connector-curvature="0" />
          </symbol>
          <symbol
             id="textext-1b6b682b-4"
             overflow="visible"
             style="overflow:visible">
            <path
               id="path4752"
               d="m 4.71875,-3.078125 c 0,-0.234375 0,-0.25 -0.234375,-0.25 -0.1875,0 -0.203125,0.015625 -0.25,0.078125 -0.8125,1.3125 -2.1875,2.015625 -4.21875,2.046875 -0.109375,0 -0.109375,0.078125 -0.109375,0.28125 l 0,0.640625 c 0,0.265625 0,0.28125 0.203125,0.28125 C 1.125,0 3.375,-0.484375 4.71875,-2.90625 z"
               style="stroke:none"
               inkscape:connector-curvature="0" />
          </symbol>
        </g>
      </defs>
      <g
         id="textext-1b6b682b-5">
        <g
           id="g4755"
           style="fill:#000000;fill-opacity:1">
          <use
             id="use4757"
             y="138.94901"
             x="327.25601"
             xlink:href="#textext-1b6b682b-1"
             width="1000"
             height="800" />
        </g>
        <path
           id="path4759"
           d="m 331.73828,138.94922 59.06641,0 0,-1.19531 -59.06641,0 z"
           style="fill:#000000;fill-opacity:1;fill-rule:nonzero;stroke:none"
           inkscape:connector-curvature="0" />
        <g
           id="g4761"
           style="fill:#000000;fill-opacity:1">
          <use
             id="use4763"
             y="138.94901"
             x="390.80399"
             xlink:href="#textext-1b6b682b-2"
             width="1000"
             height="800" />
          <use
             id="use4765"
             y="138.94901"
             x="395.28717"
             xlink:href="#textext-1b6b682b-3"
             width="1000"
             height="800" />
        </g>
        <path
           id="path4767"
           d="m 399.76953,138.94922 59.06641,0 0,-1.19531 -59.06641,0 z"
           style="fill:#000000;fill-opacity:1;fill-rule:nonzero;stroke:none"
           inkscape:connector-curvature="0" />
        <g
           id="g4769"
           style="fill:#000000;fill-opacity:1">
          <use
             id="use4771"
             y="138.94901"
             x="458.836"
             xlink:href="#textext-1b6b682b-4"
             width="1000"
             height="800" />
        </g>
      </g>
    </g>
    <text
       xml:space="preserve"
       style="font-size:40px;font-style:normal;font-weight:normal;text-align:center;line-height:125%;letter-spacing:0px;word-spacing:0px;text-anchor:middle;fill:#000000;fill-opacity:1;stroke:none;font-family:Sans"
       x="584"
       y="772.36212"
       id="text4869"
       sodipodi:linespacing="125%"><tspan
         sodipodi:role="line"
         id="tspan4871"
         x="584"
         y="772.36212">$D_1^{CC}$</tspan></text>
    <text
       sodipodi:linespacing="125%"
       id="text4873"
       y="839.20581"
       x="496"
       style="font-size:40px;font-style:normal;font-weight:normal;text-align:center;line-height:125%;letter-spacing:0px;word-spacing:0px;text-anchor:middle;fill:#000000;fill-opacity:1;stroke:none;font-family:Sans"
       xml:space="preserve"><tspan
         y="839.20581"
         x="496"
         id="tspan4875"
         sodipodi:role="line">$D_2^{CC}$</tspan></text>
  </g>
</svg>
