<?xml version="1.0" encoding="UTF-8" standalone="no"?>
<!-- Created with Inkscape (http://www.inkscape.org/) -->

<svg
   xmlns:ns0="http://www.iki.fi/pav/software/textext/"
   xmlns:dc="http://purl.org/dc/elements/1.1/"
   xmlns:cc="http://creativecommons.org/ns#"
   xmlns:rdf="http://www.w3.org/1999/02/22-rdf-syntax-ns#"
   xmlns:svg="http://www.w3.org/2000/svg"
   xmlns="http://www.w3.org/2000/svg"
   xmlns:xlink="http://www.w3.org/1999/xlink"
   xmlns:sodipodi="http://sodipodi.sourceforge.net/DTD/sodipodi-0.dtd"
   xmlns:inkscape="http://www.inkscape.org/namespaces/inkscape"
   sodipodi:docname="fig07_05-CC_aumento_dda_inversion.svg"
   inkscape:version="0.48.2 r9819"
   version="1.1"
   id="svg2"
   height="800"
   width="1000">
  <sodipodi:namedview
     id="base"
     pagecolor="#ffffff"
     bordercolor="#666666"
     borderopacity="1.0"
     inkscape:pageopacity="0.0"
     inkscape:pageshadow="2"
     inkscape:zoom="2"
     inkscape:cx="666.22819"
     inkscape:cy="403.61781"
     inkscape:document-units="mm"
     inkscape:current-layer="layer1"
     showgrid="true"
     borderlayer="false"
     inkscape:showpageshadow="true"
     gridtolerance="5"
     guidetolerance="20"
     inkscape:window-width="1440"
     inkscape:window-height="852"
     inkscape:window-x="0"
     inkscape:window-y="0"
     inkscape:window-maximized="1"
     inkscape:snap-bbox="false"
     objecttolerance="20"
     guidecolor="#0092ff"
     guideopacity="0.49803922"
     guidehicolor="#ff5200"
     guidehiopacity="0.49803922"
     inkscape:snap-from-guide="true"
     inkscape:snap-global="true"
     inkscape:object-paths="true"
     inkscape:snap-nodes="true"
     inkscape:snap-intersection-paths="true"
     inkscape:object-nodes="true">
    <inkscape:grid
       spacingy="2px"
       spacingx="2px"
       dotted="true"
       snapvisiblegridlinesonly="true"
       enabled="true"
       visible="true"
       empspacing="2"
       id="grid3139"
       type="xygrid" />
  </sodipodi:namedview>
  <defs
     id="defs4">
    <marker
       style="overflow:visible"
       id="SquareM"
       refX="0.0"
       refY="0.0"
       orient="auto"
       inkscape:stockid="SquareM">
      <path
         transform="scale(0.4)"
         style="fill-rule:evenodd;stroke:#000000;stroke-width:1.0pt;marker-start:none"
         d="M -5.0,-5.0 L -5.0,5.0 L 5.0,5.0 L 5.0,-5.0 L -5.0,-5.0 z "
         id="path4100" />
    </marker>
    <marker
       style="overflow:visible"
       id="DotM"
       refX="0.0"
       refY="0.0"
       orient="auto"
       inkscape:stockid="DotM">
      <path
         transform="scale(0.4) translate(7.4, 1)"
         style="fill-rule:evenodd;stroke:#000000;stroke-width:1.0pt;marker-start:none;marker-end:none"
         d="M -2.5,-1.0 C -2.5,1.7600000 -4.7400000,4.0 -7.5,4.0 C -10.260000,4.0 -12.5,1.7600000 -12.5,-1.0 C -12.5,-3.7600000 -10.260000,-6.0 -7.5,-6.0 C -4.7400000,-6.0 -2.5,-3.7600000 -2.5,-1.0 z "
         id="path4091" />
    </marker>
    <marker
       style="overflow:visible"
       id="DotL"
       refX="0.0"
       refY="0.0"
       orient="auto"
       inkscape:stockid="DotL">
      <path
         transform="scale(0.8) translate(7.4, 1)"
         style="fill-rule:evenodd;stroke:#000000;stroke-width:1.0pt;marker-start:none;marker-end:none"
         d="M -2.5,-1.0 C -2.5,1.7600000 -4.7400000,4.0 -7.5,4.0 C -10.260000,4.0 -12.5,1.7600000 -12.5,-1.0 C -12.5,-3.7600000 -10.260000,-6.0 -7.5,-6.0 C -4.7400000,-6.0 -2.5,-3.7600000 -2.5,-1.0 z "
         id="path4088" />
    </marker>
    <marker
       style="overflow:visible"
       id="Arrow2Mstart"
       refX="0"
       refY="0"
       orient="auto"
       inkscape:stockid="Arrow2Mstart">
      <path
         inkscape:connector-curvature="0"
         transform="scale(0.6,0.6)"
         d="M 8.7185878,4.0337352 -2.2072895,0.01601326 8.7185884,-4.0017078 c -1.7454984,2.3720609 -1.7354408,5.6174519 -6e-7,8.035443 z"
         style="font-size:12px;fill-rule:evenodd;stroke-width:0.625;stroke-linejoin:round"
         id="path3968" />
    </marker>
    <marker
       style="overflow:visible"
       id="Arrow2Lstart"
       refX="0"
       refY="0"
       orient="auto"
       inkscape:stockid="Arrow2Lstart">
      <path
         inkscape:connector-curvature="0"
         transform="matrix(1.1,0,0,1.1,1.1,0)"
         d="M 8.7185878,4.0337352 -2.2072895,0.01601326 8.7185884,-4.0017078 c -1.7454984,2.3720609 -1.7354408,5.6174519 -6e-7,8.035443 z"
         style="font-size:12px;fill-rule:evenodd;stroke-width:0.625;stroke-linejoin:round"
         id="path3962" />
    </marker>
    <marker
       style="overflow:visible"
       id="Arrow2Lend"
       refX="0"
       refY="0"
       orient="auto"
       inkscape:stockid="Arrow2Lend">
      <path
         inkscape:connector-curvature="0"
         transform="matrix(-1.1,0,0,-1.1,-1.1,0)"
         d="M 8.7185878,4.0337352 -2.2072895,0.01601326 8.7185884,-4.0017078 c -1.7454984,2.3720609 -1.7354408,5.6174519 -6e-7,8.035443 z"
         style="font-size:12px;fill-rule:evenodd;stroke-width:0.625;stroke-linejoin:round"
         id="path3965" />
    </marker>
    <marker
       style="overflow:visible"
       id="Arrow1Lend"
       refX="0"
       refY="0"
       orient="auto"
       inkscape:stockid="Arrow1Lend">
      <path
         inkscape:connector-curvature="0"
         transform="matrix(-0.8,0,0,-0.8,-10,0)"
         style="fill-rule:evenodd;stroke:#000000;stroke-width:1pt;marker-start:none"
         d="M 0,0 5,-5 -12.5,0 5,5 0,0 z"
         id="path3947" />
    </marker>
    <linearGradient
       id="linearGradient4115"
       y2="23.834999"
       xlink:href="#linearGradient4059"
       gradientUnits="userSpaceOnUse"
       x2="664.28998"
       y1="-177.59"
       x1="569.60999"
       inkscape:collect="always" />
    <linearGradient
       id="linearGradient4105"
       y2="33.893002"
       xlink:href="#linearGradient4059"
       gradientUnits="userSpaceOnUse"
       x2="777.15997"
       y1="-89.764999"
       x1="755.56"
       inkscape:collect="always" />
    <linearGradient
       id="linearGradient4095"
       y2="38.518002"
       xlink:href="#linearGradient4059"
       gradientUnits="userSpaceOnUse"
       x2="745.84998"
       y1="-37.654999"
       x1="724.09003"
       inkscape:collect="always" />
    <linearGradient
       id="linearGradient4085"
       y2="43.498001"
       xlink:href="#linearGradient4059"
       gradientUnits="userSpaceOnUse"
       x2="712.14001"
       y1="-74.555"
       x1="684.07001"
       inkscape:collect="always" />
    <linearGradient
       id="linearGradient4075"
       y2="49.040001"
       xlink:href="#linearGradient4059"
       gradientUnits="userSpaceOnUse"
       x2="674.62"
       y1="21.427"
       x1="642.41998"
       inkscape:collect="always" />
    <linearGradient
       id="linearGradient4065"
       y2="58.431"
       xlink:href="#linearGradient4059"
       gradientUnits="userSpaceOnUse"
       x2="618.77002"
       y1="28.305"
       x1="587.46997"
       inkscape:collect="always" />
    <linearGradient
       id="linearGradient4059">
      <stop
         id="stop4061"
         style="stop-color:#f8f8f8"
         offset="0" />
      <stop
         id="stop4063"
         style="stop-color:#ffffff;stop-opacity:0"
         offset="1" />
    </linearGradient>
  </defs>
  <metadata
     id="metadata7">
    <rdf:RDF>
      <cc:Work
         rdf:about="">
        <dc:format>image/svg+xml</dc:format>
        <dc:type
           rdf:resource="http://purl.org/dc/dcmitype/StillImage" />
        <dc:title />
        <cc:license
           rdf:resource="" />
        <dc:creator>
          <cc:Agent>
            <dc:title>Alvaro Carril</dc:title>
          </cc:Agent>
        </dc:creator>
      </cc:Work>
    </rdf:RDF>
  </metadata>
  <g
     transform="translate(0,-252.36215)"
     id="layer1"
     inkscape:groupmode="layer"
     inkscape:label="Capa 1">
    <text
       sodipodi:linespacing="125%"
       id="text3000"
       y="972.36212"
       x="968"
       style="font-size:40px;font-style:normal;font-weight:normal;text-align:start;line-height:125%;letter-spacing:0px;word-spacing:0px;text-anchor:start;fill:#000000;fill-opacity:1;stroke:none;font-family:Sans"
       xml:space="preserve"><tspan
         y="972.36212"
         x="968"
         id="tspan3002"
         sodipodi:role="line">$S,I$</tspan></text>
    <g
       id="g3043"
       transform="translate(-265.99998,248.15642)">
      <g
         word-spacing="normal"
         letter-spacing="normal"
         font-size-adjust="none"
         font-stretch="normal"
         font-weight="normal"
         font-variant="normal"
         font-style="normal"
         stroke-miterlimit="10.433"
         xml:space="preserve"
         transform="matrix(1.1428571,0,0,-1.1428571,-200,600)"
         id="content"
         style="font-style:normal;font-variant:normal;font-weight:normal;font-stretch:normal;letter-spacing:normal;word-spacing:normal;text-anchor:start;fill:none;stroke:#000000;stroke-linecap:butt;stroke-linejoin:miter;stroke-miterlimit:10.43299961;stroke-opacity:1;stroke-dasharray:none;stroke-dashoffset:0" />    </g>
    <path
       sodipodi:nodetypes="ccc"
       inkscape:connector-curvature="0"
       id="path5133"
       d="m 48,956.36215 0,-651.99997 0,-20"
       style="fill:none;stroke:#000000;stroke-width:3;stroke-linecap:square;stroke-linejoin:miter;stroke-miterlimit:4;stroke-opacity:1;stroke-dasharray:none;marker-start:none;marker-mid:none;marker-end:none" />
    <path
       sodipodi:nodetypes="ccc"
       inkscape:connector-curvature="0"
       id="path6263"
       d="m 48,956.36215 660,0 252,-1e-4"
       style="fill:none;stroke:#000000;stroke-width:3.00099999999999989;stroke-linecap:square;stroke-linejoin:miter;stroke-miterlimit:4;stroke-opacity:1;stroke-dasharray:none;marker-end:none" />
    <text
       inkscape:transform-center-x="21.847174"
       sodipodi:linespacing="125%"
       id="text6469"
       y="268.36215"
       x="48"
       style="font-size:40px;font-style:normal;font-weight:normal;text-align:center;line-height:125%;letter-spacing:0px;word-spacing:0px;text-anchor:middle;fill:#000000;fill-opacity:1;stroke:none;font-family:Sans"
       xml:space="preserve"><tspan
         style="text-align:center;text-anchor:middle"
         y="268.36215"
         x="48"
         id="tspan6471"
         sodipodi:role="line">$r$</tspan></text>
    <path
       sodipodi:nodetypes="cc"
       transform="translate(0,252.36215)"
       inkscape:connector-curvature="0"
       id="path3025"
       d="m 880,544 0,0"
       style="fill:none;stroke:#000000;stroke-width:1px;stroke-linecap:butt;stroke-linejoin:miter;stroke-opacity:1" />
    <text
       sodipodi:linespacing="125%"
       id="text3931"
       y="868.36212"
       x="840"
       style="font-size:40px;font-style:normal;font-weight:normal;line-height:125%;letter-spacing:0px;word-spacing:0px;fill:#000000;fill-opacity:1;stroke:none;font-family:Sans"
       xml:space="preserve"><tspan
         id="tspan3853"
         y="868.36212"
         x="840"
         sodipodi:role="line">$I_2$</tspan></text>
    <text
       sodipodi:linespacing="125%"
       id="text3050"
       y="728.36212"
       x="40"
       style="font-size:40px;font-style:normal;font-weight:normal;text-align:end;line-height:125%;letter-spacing:0px;word-spacing:0px;text-anchor:end;fill:#000000;fill-opacity:1;stroke:none;font-family:Sans"
       xml:space="preserve"><tspan
         y="728.36212"
         x="40"
         id="tspan3052"
         sodipodi:role="line">$r^*$</tspan></text>
    <text
       xml:space="preserve"
       style="font-size:40px;font-style:normal;font-weight:normal;text-align:start;line-height:125%;letter-spacing:0px;word-spacing:0px;text-anchor:start;fill:#000000;fill-opacity:1;stroke:none;font-family:Sans"
       x="704"
       y="300.36215"
       id="text4142"
       sodipodi:linespacing="125%"><tspan
         sodipodi:role="line"
         id="tspan4144"
         x="704"
         y="300.36215">$S$</tspan></text>
    <path
       inkscape:connector-curvature="0"
       id="path3863"
       d="m 832,844.36215 -336,-336 m 0,0 192,-192"
       style="fill:none;stroke:#000000;stroke-width:3;stroke-linecap:butt;stroke-linejoin:miter;stroke-miterlimit:4;stroke-opacity:1;stroke-dasharray:none"
       sodipodi:nodetypes="cccc" />
    <path
       transform="translate(0,252.36215)"
       inkscape:connector-curvature="0"
       id="path3865"
       d="M 496,256 160,592"
       style="fill:none;stroke:#000000;stroke-width:3;stroke-linecap:butt;stroke-linejoin:miter;stroke-opacity:1;stroke-miterlimit:4;stroke-dasharray:none" />
    <path
       transform="translate(0,252.36215)"
       inkscape:connector-curvature="0"
       id="path3873"
       d="M 496,256 288,48"
       style="fill:none;stroke:#000000;stroke-width:3;stroke-linecap:butt;stroke-linejoin:miter;stroke-opacity:1;stroke-miterlimit:4;stroke-dasharray:none" />
    <path
       sodipodi:nodetypes="ccc"
       inkscape:connector-curvature="0"
       id="path3879"
       d="m 288,716.36215 320,0 96,0"
       style="fill:none;stroke:#000000;stroke-width:3.00118113;stroke-linecap:butt;stroke-linejoin:miter;stroke-miterlimit:4;stroke-opacity:1;stroke-dasharray:3.00118113,9.00354338;stroke-dashoffset:5.10200791;marker-end:none" />
    <path
       sodipodi:nodetypes="cc"
       inkscape:connector-curvature="0"
       id="path3881"
       d="m 288,716.36215 -240,0"
       style="fill:none;stroke:#000000;stroke-width:3.00118113;stroke-linecap:butt;stroke-linejoin:miter;stroke-miterlimit:4;stroke-opacity:1;stroke-dasharray:3.00118113,9.00354338;stroke-dashoffset:7.50295281;marker-start:none;marker-end:none" />
    <g
       transform="matrix(3,0,0,3,-690.50784,318.67082)"
       ns0:text="\\[\n\\underbrace{\\rule{4.8cm}{0pt}}\n\\]\n"
       ns0:preamble=""
       id="g4733"
       style="fill:#000000;fill-opacity:0.49803922">
      <defs
         id="defs4735">
        <g
           id="g4737">
          <symbol
             style="overflow:visible"
             overflow="visible"
             id="textext-1b6b682b-0">
            <path
               inkscape:connector-curvature="0"
               style="stroke:none"
               d=""
               id="path4740" />
          </symbol>
          <symbol
             style="overflow:visible"
             overflow="visible"
             id="textext-1b6b682b-1">
            <path
               inkscape:connector-curvature="0"
               style="stroke:none"
               d="m 4.578125,-0.921875 c 0,-0.21875 0,-0.28125 -0.125,-0.28125 -0.609375,0 -1.609375,-0.078125 -2.5,-0.515625 C 0.875,-2.265625 0.46875,-2.890625 0.21875,-3.28125 0.1875,-3.328125 0.125,-3.328125 0,-3.328125 c -0.234375,0 -0.234375,0.015625 -0.234375,0.25 l 0,0.171875 C 1.109375,-0.46875 3.359375,0 4.375,0 4.578125,0 4.578125,-0.015625 4.578125,-0.28125 z"
               id="path4743" />
          </symbol>
          <symbol
             style="overflow:visible"
             overflow="visible"
             id="textext-1b6b682b-2">
            <path
               inkscape:connector-curvature="0"
               style="stroke:none"
               d="M 4.71875,1.71875 C 3.375,-0.734375 1.125,-1.203125 0.109375,-1.203125 c -0.203125,0 -0.203125,0.015625 -0.203125,0.28125 l 0,0.640625 c 0,0.234375 0,0.28125 0.140625,0.28125 0.59375,0.015625 1.59375,0.09375 2.484375,0.53125 1.078125,0.53125 1.484375,1.15625 1.734375,1.546875 0.03125,0.0625 0.09375,0.0625 0.21875,0.0625 C 4.71875,2.140625 4.71875,2.125 4.71875,1.875 z"
               id="path4746" />
          </symbol>
          <symbol
             style="overflow:visible"
             overflow="visible"
             id="textext-1b6b682b-3">
            <path
               inkscape:connector-curvature="0"
               style="stroke:none"
               d="m 4.578125,-0.921875 c 0,-0.265625 0,-0.28125 -0.203125,-0.28125 -1.015625,0 -3.265625,0.484375 -4.609375,2.921875 l 0,0.15625 c 0,0.25 0,0.265625 0.234375,0.265625 0.1875,0 0.203125,-0.015625 0.25,-0.09375 C 1.0625,0.75 2.4375,0.046875 4.46875,0 4.578125,0 4.578125,-0.0625 4.578125,-0.28125 z"
               id="path4749" />
          </symbol>
          <symbol
             style="overflow:visible"
             overflow="visible"
             id="textext-1b6b682b-4">
            <path
               inkscape:connector-curvature="0"
               style="stroke:none"
               d="m 4.71875,-3.078125 c 0,-0.234375 0,-0.25 -0.234375,-0.25 -0.1875,0 -0.203125,0.015625 -0.25,0.078125 -0.8125,1.3125 -2.1875,2.015625 -4.21875,2.046875 -0.109375,0 -0.109375,0.078125 -0.109375,0.28125 l 0,0.640625 c 0,0.265625 0,0.28125 0.203125,0.28125 C 1.125,0 3.375,-0.484375 4.71875,-2.90625 z"
               id="path4752" />
          </symbol>
        </g>
      </defs>
      <g
         id="textext-1b6b682b-5"
         style="fill:#000000;fill-opacity:0.49803922">
        <g
           style="fill:#000000;fill-opacity:0.49803922"
           id="g4755">
          <use
             height="800"
             width="1000"
             xlink:href="#textext-1b6b682b-1"
             x="327.25601"
             y="138.94901"
             id="use4757"
             style="fill:#000000;fill-opacity:0.49803922" />
        </g>
        <path
           inkscape:connector-curvature="0"
           style="fill:#000000;fill-opacity:0.49803922;fill-rule:nonzero;stroke:none"
           d="m 331.73828,138.94922 59.06641,0 0,-1.19531 -59.06641,0 z"
           id="path4759" />
        <g
           style="fill:#000000;fill-opacity:0.49803922"
           id="g4761">
          <use
             height="800"
             width="1000"
             xlink:href="#textext-1b6b682b-2"
             x="390.80399"
             y="138.94901"
             id="use4763"
             style="fill:#000000;fill-opacity:0.49803922" />
          <use
             height="800"
             width="1000"
             xlink:href="#textext-1b6b682b-3"
             x="395.28717"
             y="138.94901"
             id="use4765"
             style="fill:#000000;fill-opacity:0.49803922" />
        </g>
        <path
           inkscape:connector-curvature="0"
           style="fill:#000000;fill-opacity:0.49803922;fill-rule:nonzero;stroke:none"
           d="m 399.76953,138.94922 59.06641,0 0,-1.19531 -59.06641,0 z"
           id="path4767" />
        <g
           style="fill:#000000;fill-opacity:0.49803922"
           id="g4769">
          <use
             height="800"
             width="1000"
             xlink:href="#textext-1b6b682b-4"
             x="458.836"
             y="138.94901"
             id="use4771"
             style="fill:#000000;fill-opacity:0.49803922" />
        </g>
      </g>
    </g>
    <text
       sodipodi:linespacing="125%"
       id="text4869"
       y="676.36212"
       x="408"
       style="font-size:40px;font-style:normal;font-weight:normal;text-align:center;line-height:125%;letter-spacing:0px;word-spacing:0px;text-anchor:middle;opacity:0.5;fill:#000000;fill-opacity:1;stroke:none;font-family:Sans"
       xml:space="preserve"><tspan
         y="676.36212"
         x="408"
         id="tspan4871"
         sodipodi:role="line">$\scriptstyle{D_1^{CC}}$</tspan></text>
    <text
       xml:space="preserve"
       style="font-size:40px;font-style:normal;font-weight:normal;text-align:center;line-height:125%;letter-spacing:0px;word-spacing:0px;text-anchor:middle;opacity:0.5;fill:#000000;fill-opacity:1;stroke:none;font-family:Sans"
       x="496"
       y="772.36212"
       id="text4873"
       sodipodi:linespacing="125%"><tspan
         sodipodi:role="line"
         id="tspan4875"
         x="496"
         y="772.36212">$\scriptstyle{D_2^{CC}}$</tspan></text>
    <g
       id="g5480"
       ns0:preamble=""
       ns0:text="\\[\n\\underbrace{\\rule{2.4cm}{0pt}}\n\\]\n"
       transform="matrix(3,0,0,-3,-777.85157,1113.2098)"
       style="fill:#000000;fill-opacity:0.49803922;stroke:none">
      <defs
         id="defs5482">
        <g
           id="g5484">
          <symbol
             id="textext-c84232ca-0"
             overflow="visible"
             style="overflow:visible">
            <path
               id="path5487"
               d=""
               style="stroke:none"
               inkscape:connector-curvature="0" />
          </symbol>
          <symbol
             id="textext-c84232ca-1"
             overflow="visible"
             style="overflow:visible">
            <path
               id="path5490"
               d="m 4.578125,-0.921875 c 0,-0.21875 0,-0.28125 -0.125,-0.28125 -0.609375,0 -1.609375,-0.078125 -2.5,-0.515625 C 0.875,-2.265625 0.46875,-2.890625 0.21875,-3.28125 0.1875,-3.328125 0.125,-3.328125 0,-3.328125 c -0.234375,0 -0.234375,0.015625 -0.234375,0.25 l 0,0.171875 C 1.109375,-0.46875 3.359375,0 4.375,0 4.578125,0 4.578125,-0.015625 4.578125,-0.28125 z"
               style="stroke:none"
               inkscape:connector-curvature="0" />
          </symbol>
          <symbol
             id="textext-c84232ca-2"
             overflow="visible"
             style="overflow:visible">
            <path
               id="path5493"
               d="M 4.71875,1.71875 C 3.375,-0.734375 1.125,-1.203125 0.109375,-1.203125 c -0.203125,0 -0.203125,0.015625 -0.203125,0.28125 l 0,0.640625 c 0,0.234375 0,0.28125 0.140625,0.28125 0.59375,0.015625 1.59375,0.09375 2.484375,0.53125 1.078125,0.53125 1.484375,1.15625 1.734375,1.546875 0.03125,0.0625 0.09375,0.0625 0.21875,0.0625 C 4.71875,2.140625 4.71875,2.125 4.71875,1.875 z"
               style="stroke:none"
               inkscape:connector-curvature="0" />
          </symbol>
          <symbol
             id="textext-c84232ca-3"
             overflow="visible"
             style="overflow:visible">
            <path
               id="path5496"
               d="m 4.578125,-0.921875 c 0,-0.265625 0,-0.28125 -0.203125,-0.28125 -1.015625,0 -3.265625,0.484375 -4.609375,2.921875 l 0,0.15625 c 0,0.25 0,0.265625 0.234375,0.265625 0.1875,0 0.203125,-0.015625 0.25,-0.09375 C 1.0625,0.75 2.4375,0.046875 4.46875,0 4.578125,0 4.578125,-0.0625 4.578125,-0.28125 z"
               style="stroke:none"
               inkscape:connector-curvature="0" />
          </symbol>
          <symbol
             id="textext-c84232ca-4"
             overflow="visible"
             style="overflow:visible">
            <path
               id="path5499"
               d="m 4.71875,-3.078125 c 0,-0.234375 0,-0.25 -0.234375,-0.25 -0.1875,0 -0.203125,0.015625 -0.25,0.078125 -0.8125,1.3125 -2.1875,2.015625 -4.21875,2.046875 -0.109375,0 -0.109375,0.078125 -0.109375,0.28125 l 0,0.640625 c 0,0.265625 0,0.28125 0.203125,0.28125 C 1.125,0 3.375,-0.484375 4.71875,-2.90625 z"
               style="stroke:none"
               inkscape:connector-curvature="0" />
          </symbol>
        </g>
      </defs>
      <g
         id="textext-c84232ca-5"
         style="fill:#000000;fill-opacity:0.49803922;stroke:none">
        <g
           id="g5502"
           style="fill:#000000;fill-opacity:0.49803922;stroke:none">
          <use
             id="use5504"
             y="138.94901"
             x="361.272"
             xlink:href="#textext-c84232ca-1"
             width="1000"
             height="800"
             style="fill:#000000;fill-opacity:0.49803922;stroke:none" />
        </g>
        <path
           id="path5506"
           d="m 365.75391,138.94922 25.05078,0 0,-1.19531 -25.05078,0 z"
           style="fill:#000000;fill-opacity:0.49803922;fill-rule:nonzero;stroke:none"
           inkscape:connector-curvature="0" />
        <g
           id="g5508"
           style="fill:#000000;fill-opacity:0.49803922;stroke:none">
          <use
             id="use5510"
             y="138.94901"
             x="390.80399"
             xlink:href="#textext-c84232ca-2"
             width="1000"
             height="800"
             style="fill:#000000;fill-opacity:0.49803922;stroke:none" />
          <use
             id="use5512"
             y="138.94901"
             x="395.28717"
             xlink:href="#textext-c84232ca-3"
             width="1000"
             height="800"
             style="fill:#000000;fill-opacity:0.49803922;stroke:none" />
        </g>
        <path
           id="path5514"
           d="m 399.76953,138.94922 25.05078,0 0,-1.19531 -25.05078,0 z"
           style="fill:#000000;fill-opacity:0.49803922;fill-rule:nonzero;stroke:none"
           inkscape:connector-curvature="0" />
        <g
           id="g5516"
           style="fill:#000000;fill-opacity:0.49803922;stroke:none">
          <use
             id="use5518"
             y="138.94901"
             x="424.82001"
             xlink:href="#textext-c84232ca-4"
             width="1000"
             height="800"
             style="fill:#000000;fill-opacity:0.49803922;stroke:none" />
        </g>
      </g>
    </g>
    <path
       style="fill:none;stroke:#000000;stroke-width:3;stroke-linecap:butt;stroke-linejoin:miter;stroke-miterlimit:4;stroke-opacity:1;stroke-dasharray:none"
       d="m 112,300.36215 544,544"
       id="path5643"
       inkscape:connector-curvature="0" />
    <text
       xml:space="preserve"
       style="font-size:40px;font-style:normal;font-weight:normal;line-height:125%;letter-spacing:0px;word-spacing:0px;fill:#000000;fill-opacity:1;stroke:none;font-family:Sans"
       x="664"
       y="868.36212"
       id="text5645"
       sodipodi:linespacing="125%"><tspan
         sodipodi:role="line"
         x="664"
         y="868.36212"
         id="tspan5647">$I_1$</tspan></text>
  </g>
</svg>
