<?xml version="1.0" encoding="UTF-8" standalone="no"?>
<!-- Created with Inkscape (http://www.inkscape.org/) -->

<svg
   xmlns:ns0="http://www.iki.fi/pav/software/textext/"
   xmlns:dc="http://purl.org/dc/elements/1.1/"
   xmlns:cc="http://creativecommons.org/ns#"
   xmlns:rdf="http://www.w3.org/1999/02/22-rdf-syntax-ns#"
   xmlns:svg="http://www.w3.org/2000/svg"
   xmlns="http://www.w3.org/2000/svg"
   xmlns:xlink="http://www.w3.org/1999/xlink"
   xmlns:sodipodi="http://sodipodi.sourceforge.net/DTD/sodipodi-0.dtd"
   xmlns:inkscape="http://www.inkscape.org/namespaces/inkscape"
   sodipodi:docname="fig03_03-maxU_2t.svg"
   inkscape:version="0.48.2 r9819"
   version="1.1"
   id="svg2"
   height="800"
   width="1000">
  <sodipodi:namedview
     id="base"
     pagecolor="#ffffff"
     bordercolor="#666666"
     borderopacity="1.0"
     inkscape:pageopacity="0.0"
     inkscape:pageshadow="2"
     inkscape:zoom="0.45254834"
     inkscape:cx="900.3289"
     inkscape:cy="218.58829"
     inkscape:document-units="px"
     inkscape:current-layer="layer1"
     showgrid="true"
     borderlayer="false"
     inkscape:showpageshadow="true"
     gridtolerance="5"
     guidetolerance="20"
     inkscape:window-width="1440"
     inkscape:window-height="852"
     inkscape:window-x="0"
     inkscape:window-y="0"
     inkscape:window-maximized="1"
     inkscape:snap-bbox="false"
     objecttolerance="20"
     guidecolor="#0092ff"
     guideopacity="0.49803922"
     guidehicolor="#ff5200"
     guidehiopacity="0.49803922"
     inkscape:snap-from-guide="true"
     inkscape:snap-global="true"
     inkscape:object-paths="true"
     inkscape:snap-nodes="true"
     inkscape:snap-intersection-paths="true"
     inkscape:object-nodes="true">
    <inkscape:grid
       type="xygrid"
       id="grid3139"
       empspacing="2"
       visible="true"
       enabled="true"
       snapvisiblegridlinesonly="true"
       dotted="true"
       spacingx="2px"
       spacingy="2px" />
  </sodipodi:namedview>
  <defs
     id="defs4">
    <marker
       inkscape:stockid="SquareM"
       orient="auto"
       refY="0.0"
       refX="0.0"
       id="SquareM"
       style="overflow:visible">
      <path
         id="path4100"
         d="M -5.0,-5.0 L -5.0,5.0 L 5.0,5.0 L 5.0,-5.0 L -5.0,-5.0 z "
         style="fill-rule:evenodd;stroke:#000000;stroke-width:1.0pt;marker-start:none"
         transform="scale(0.4)" />
    </marker>
    <marker
       inkscape:stockid="DotM"
       orient="auto"
       refY="0.0"
       refX="0.0"
       id="DotM"
       style="overflow:visible">
      <path
         id="path4091"
         d="M -2.5,-1.0 C -2.5,1.7600000 -4.7400000,4.0 -7.5,4.0 C -10.260000,4.0 -12.5,1.7600000 -12.5,-1.0 C -12.5,-3.7600000 -10.260000,-6.0 -7.5,-6.0 C -4.7400000,-6.0 -2.5,-3.7600000 -2.5,-1.0 z "
         style="fill-rule:evenodd;stroke:#000000;stroke-width:1.0pt;marker-start:none;marker-end:none"
         transform="scale(0.4) translate(7.4, 1)" />
    </marker>
    <marker
       inkscape:stockid="DotL"
       orient="auto"
       refY="0.0"
       refX="0.0"
       id="DotL"
       style="overflow:visible">
      <path
         id="path4088"
         d="M -2.5,-1.0 C -2.5,1.7600000 -4.7400000,4.0 -7.5,4.0 C -10.260000,4.0 -12.5,1.7600000 -12.5,-1.0 C -12.5,-3.7600000 -10.260000,-6.0 -7.5,-6.0 C -4.7400000,-6.0 -2.5,-3.7600000 -2.5,-1.0 z "
         style="fill-rule:evenodd;stroke:#000000;stroke-width:1.0pt;marker-start:none;marker-end:none"
         transform="scale(0.8) translate(7.4, 1)" />
    </marker>
    <marker
       inkscape:stockid="Arrow2Mstart"
       orient="auto"
       refY="0"
       refX="0"
       id="Arrow2Mstart"
       style="overflow:visible">
      <path
         id="path3968"
         style="font-size:12px;fill-rule:evenodd;stroke-width:0.625;stroke-linejoin:round"
         d="M 8.7185878,4.0337352 -2.2072895,0.01601326 8.7185884,-4.0017078 c -1.7454984,2.3720609 -1.7354408,5.6174519 -6e-7,8.035443 z"
         transform="scale(0.6,0.6)"
         inkscape:connector-curvature="0" />
    </marker>
    <marker
       inkscape:stockid="Arrow2Lstart"
       orient="auto"
       refY="0"
       refX="0"
       id="Arrow2Lstart"
       style="overflow:visible">
      <path
         id="path3962"
         style="font-size:12px;fill-rule:evenodd;stroke-width:0.625;stroke-linejoin:round"
         d="M 8.7185878,4.0337352 -2.2072895,0.01601326 8.7185884,-4.0017078 c -1.7454984,2.3720609 -1.7354408,5.6174519 -6e-7,8.035443 z"
         transform="matrix(1.1,0,0,1.1,1.1,0)"
         inkscape:connector-curvature="0" />
    </marker>
    <marker
       inkscape:stockid="Arrow2Lend"
       orient="auto"
       refY="0"
       refX="0"
       id="Arrow2Lend"
       style="overflow:visible">
      <path
         id="path3965"
         style="font-size:12px;fill-rule:evenodd;stroke-width:0.625;stroke-linejoin:round"
         d="M 8.7185878,4.0337352 -2.2072895,0.01601326 8.7185884,-4.0017078 c -1.7454984,2.3720609 -1.7354408,5.6174519 -6e-7,8.035443 z"
         transform="matrix(-1.1,0,0,-1.1,-1.1,0)"
         inkscape:connector-curvature="0" />
    </marker>
    <marker
       inkscape:stockid="Arrow1Lend"
       orient="auto"
       refY="0"
       refX="0"
       id="Arrow1Lend"
       style="overflow:visible">
      <path
         id="path3947"
         d="M 0,0 5,-5 -12.5,0 5,5 0,0 z"
         style="fill-rule:evenodd;stroke:#000000;stroke-width:1pt;marker-start:none"
         transform="matrix(-0.8,0,0,-0.8,-10,0)"
         inkscape:connector-curvature="0" />
    </marker>
    <linearGradient
       inkscape:collect="always"
       x1="569.60999"
       y1="-177.59"
       x2="664.28998"
       gradientUnits="userSpaceOnUse"
       xlink:href="#linearGradient4059"
       y2="23.834999"
       id="linearGradient4115" />
    <linearGradient
       inkscape:collect="always"
       x1="755.56"
       y1="-89.764999"
       x2="777.15997"
       gradientUnits="userSpaceOnUse"
       xlink:href="#linearGradient4059"
       y2="33.893002"
       id="linearGradient4105" />
    <linearGradient
       inkscape:collect="always"
       x1="724.09003"
       y1="-37.654999"
       x2="745.84998"
       gradientUnits="userSpaceOnUse"
       xlink:href="#linearGradient4059"
       y2="38.518002"
       id="linearGradient4095" />
    <linearGradient
       inkscape:collect="always"
       x1="684.07001"
       y1="-74.555"
       x2="712.14001"
       gradientUnits="userSpaceOnUse"
       xlink:href="#linearGradient4059"
       y2="43.498001"
       id="linearGradient4085" />
    <linearGradient
       inkscape:collect="always"
       x1="642.41998"
       y1="21.427"
       x2="674.62"
       gradientUnits="userSpaceOnUse"
       xlink:href="#linearGradient4059"
       y2="49.040001"
       id="linearGradient4075" />
    <linearGradient
       inkscape:collect="always"
       x1="587.46997"
       y1="28.305"
       x2="618.77002"
       gradientUnits="userSpaceOnUse"
       xlink:href="#linearGradient4059"
       y2="58.431"
       id="linearGradient4065" />
    <linearGradient
       id="linearGradient4059">
      <stop
         offset="0"
         style="stop-color:#f8f8f8"
         id="stop4061" />
      <stop
         offset="1"
         style="stop-color:#ffffff;stop-opacity:0"
         id="stop4063" />
    </linearGradient>
  </defs>
  <metadata
     id="metadata7">
    <rdf:RDF>
      <cc:Work
         rdf:about="">
        <dc:format>image/svg+xml</dc:format>
        <dc:type
           rdf:resource="http://purl.org/dc/dcmitype/StillImage" />
        <dc:title />
        <cc:license
           rdf:resource="" />
        <dc:creator>
          <cc:Agent>
            <dc:title>Alvaro Carril</dc:title>
          </cc:Agent>
        </dc:creator>
      </cc:Work>
    </rdf:RDF>
  </metadata>
  <g
     inkscape:label="Capa 1"
     inkscape:groupmode="layer"
     id="layer1"
     transform="translate(0,-252.36215)">
    <text
       xml:space="preserve"
       style="font-size:40px;font-style:normal;font-weight:normal;text-align:start;line-height:125%;letter-spacing:0px;word-spacing:0px;text-anchor:start;fill:#000000;fill-opacity:1;stroke:none;font-family:Sans"
       x="968"
       y="1038.3621"
       id="text3000"
       sodipodi:linespacing="125%"><tspan
         sodipodi:role="line"
         id="tspan3002"
         x="968"
         y="1038.3621">$C_1$</tspan></text>
    <g
       transform="translate(-265.99998,248.15642)"
       id="g3043">
      <g
         style="font-style:normal;font-variant:normal;font-weight:normal;font-stretch:normal;letter-spacing:normal;word-spacing:normal;text-anchor:start;fill:none;stroke:#000000;stroke-linecap:butt;stroke-linejoin:miter;stroke-miterlimit:10.43299961;stroke-opacity:1;stroke-dasharray:none;stroke-dashoffset:0"
         id="content"
         transform="matrix(1.1428571,0,0,-1.1428571,-200,600)"
         xml:space="preserve"
         stroke-miterlimit="10.433"
         font-style="normal"
         font-variant="normal"
         font-weight="normal"
         font-stretch="normal"
         font-size-adjust="none"
         letter-spacing="normal"
         word-spacing="normal" />    </g>
    <path
       style="fill:none;stroke:#000000;stroke-width:3;stroke-linecap:square;stroke-linejoin:miter;stroke-miterlimit:4;stroke-opacity:1;stroke-dasharray:none;marker-start:none;marker-mid:none;marker-end:none"
       d="m 48,1022.3622 0,-652.00002 0,-20"
       id="path5133"
       inkscape:connector-curvature="0"
       sodipodi:nodetypes="ccc" />
    <path
       style="fill:none;stroke:#000000;stroke-width:3;stroke-linecap:square;stroke-linejoin:miter;stroke-miterlimit:4;stroke-opacity:1;stroke-dasharray:none;marker-end:none"
       d="m 48,1022.3622 660,0 252,-10e-5"
       id="path6263"
       inkscape:connector-curvature="0"
       sodipodi:nodetypes="ccc" />
    <text
       xml:space="preserve"
       style="font-size:40px;font-style:normal;font-weight:normal;text-align:center;line-height:125%;letter-spacing:0px;word-spacing:0px;text-anchor:middle;fill:#000000;fill-opacity:1;stroke:none;font-family:Sans"
       x="48"
       y="334.36215"
       id="text6469"
       sodipodi:linespacing="125%"
       inkscape:transform-center-x="21.847174"><tspan
         sodipodi:role="line"
         id="tspan6471"
         x="48"
         y="334.36215"
         style="text-align:center;text-anchor:middle">$C_2$</tspan></text>
    <path
       style="fill:none;stroke:#000000;stroke-width:3;stroke-linecap:butt;stroke-linejoin:miter;stroke-miterlimit:4;stroke-opacity:1;stroke-dasharray:none"
       d="M 48,430.36215 839,1022.3621"
       id="path3023"
       inkscape:connector-curvature="0"
       sodipodi:nodetypes="cc" />
    <path
       style="fill:none;stroke:#000000;stroke-width:1px;stroke-linecap:butt;stroke-linejoin:miter;stroke-opacity:1"
       d="m 880,862.36215 0,0"
       id="path3025"
       inkscape:connector-curvature="0"
       sodipodi:nodetypes="cc" />
    <path
       style="fill:none;stroke:#000000;stroke-width:3;stroke-linecap:butt;stroke-linejoin:miter;stroke-miterlimit:4;stroke-opacity:1;stroke-dasharray:none"
       d="m 320,446.36215 c 30.87456,141.67958 116.34062,265.32623 195.65207,334 C 602.6893,855.72548 832,861.11215 832,861.11215"
       id="path3035"
       inkscape:connector-curvature="0"
       sodipodi:nodetypes="csc" />
    <text
       xml:space="preserve"
       style="font-size:40px;font-style:normal;font-weight:normal;line-height:125%;letter-spacing:0px;word-spacing:0px;fill:#000000;fill-opacity:1;stroke:none;font-family:Sans"
       x="848"
       y="878.36212"
       id="text3931"
       sodipodi:linespacing="125%"><tspan
         sodipodi:role="line"
         id="tspan3933"
         x="848"
         y="878.36212">$U_1$</tspan></text>
    <text
       xml:space="preserve"
       style="font-size:40px;font-style:normal;font-weight:normal;text-align:end;line-height:125%;letter-spacing:0px;word-spacing:0px;text-anchor:end;fill:#000000;fill-opacity:1;stroke:none;font-family:Sans"
       x="40"
       y="446.36215"
       id="text4011"
       sodipodi:linespacing="125%"><tspan
         sodipodi:role="line"
         id="tspan4013"
         x="40"
         y="446.36215">$(1+r)V$</tspan></text>
    <text
       xml:space="preserve"
       style="font-size:40px;font-style:normal;font-weight:normal;text-align:center;line-height:125%;letter-spacing:0px;word-spacing:0px;text-anchor:middle;fill:#000000;fill-opacity:1;stroke:none;font-family:Sans"
       x="336"
       y="1070.3621"
       id="text4015"
       sodipodi:linespacing="125%"><tspan
         sodipodi:role="line"
         id="tspan4017"
         x="336"
         y="1070.3621">$Y_1$</tspan></text>
    <text
       sodipodi:linespacing="125%"
       id="text4019"
       y="1070.3621"
       x="520"
       style="font-size:40px;font-style:normal;font-weight:normal;text-align:center;line-height:125%;letter-spacing:0px;word-spacing:0px;text-anchor:middle;fill:#000000;fill-opacity:1;stroke:none;font-family:Sans"
       xml:space="preserve"><tspan
         y="1070.3621"
         x="520"
         id="tspan4021"
         sodipodi:role="line">$C_1^*$</tspan></text>
    <text
       sodipodi:linespacing="125%"
       id="text3046"
       y="662.36212"
       x="40"
       style="font-size:40px;font-style:normal;font-weight:normal;text-align:end;line-height:125%;letter-spacing:0px;word-spacing:0px;text-anchor:end;fill:#000000;fill-opacity:1;stroke:none;font-family:Sans"
       xml:space="preserve"><tspan
         y="662.36212"
         x="40"
         id="tspan3048"
         sodipodi:role="line">$Y_2$</tspan></text>
    <text
       xml:space="preserve"
       style="font-size:40px;font-style:normal;font-weight:normal;text-align:end;line-height:125%;letter-spacing:0px;word-spacing:0px;text-anchor:end;fill:#000000;fill-opacity:1;stroke:none;font-family:Sans"
       x="40"
       y="798.36212"
       id="text3050"
       sodipodi:linespacing="125%"><tspan
         sodipodi:role="line"
         id="tspan3052"
         x="40"
         y="798.36212">$C_2^*$</tspan></text>
    <text
       sodipodi:linespacing="125%"
       id="text3054"
       y="1006.3621"
       x="784"
       style="font-size:40px;font-style:normal;font-weight:normal;text-align:end;line-height:125%;letter-spacing:0px;word-spacing:0px;text-anchor:end;fill:#000000;fill-opacity:1;stroke:none;font-family:Sans"
       xml:space="preserve"><tspan
         y="1006.3621"
         x="784"
         id="tspan3056"
         sodipodi:role="line">$\scriptstyle-(1+r)$</tspan></text>
    <path
       style="fill:none;stroke:#000000;stroke-width:3;stroke-linecap:butt;stroke-linejoin:miter;stroke-miterlimit:4;stroke-opacity:1;stroke-dasharray:3, 9;stroke-dashoffset:1.5;marker-end:none"
       d="m 48,646.36215 284,0"
       id="path3883"
       inkscape:connector-curvature="0"
       sodipodi:nodetypes="cc" />
    <path
       style="fill:none;stroke:#000000;stroke-width:3;stroke-linecap:butt;stroke-linejoin:miter;stroke-miterlimit:4;stroke-opacity:1;stroke-dasharray:3, 9;stroke-dashoffset:9.51"
       d="m 336,646.36215 0,376.00005 0,0 0,0 0,0"
       id="path3885"
       inkscape:connector-curvature="0"
       sodipodi:nodetypes="ccccc" />
    <path
       style="fill:none;stroke:#000000;stroke-width:3;stroke-linecap:butt;stroke-linejoin:miter;stroke-miterlimit:3;stroke-opacity:1;stroke-dasharray:3, 9;stroke-dashoffset:1.5;marker-end:url(#DotM)"
       d="m 48,782.36215 468,0"
       id="path3893"
       inkscape:connector-curvature="0" />
    <path
       style="fill:none;stroke:#000000;stroke-width:3;stroke-linecap:butt;stroke-linejoin:miter;stroke-miterlimit:4;stroke-opacity:1;stroke-dasharray:3, 9;stroke-dashoffset:2.1"
       d="m 516,1022.3622 0,-240.00005"
       id="path4092"
       inkscape:connector-curvature="0" />
    <g
       id="g3101"
       ns0:preamble=""
       ns0:text="\\[ \n\\left\\{ \\rule{0pt}{0.8cm} \\right.  %Change size as necessary\n\\]\n"
       transform="matrix(-3,0,0,3,1259.4844,277.67465)">
      <defs
         id="defs3103">
        <g
           id="g3105">
          <symbol
             id="textext-76cdf2b4-0"
             overflow="visible"
             style="overflow:visible">
            <path
               id="path3108"
               d=""
               style="stroke:none"
               inkscape:connector-curvature="0" />
          </symbol>
          <symbol
             id="textext-76cdf2b4-1"
             overflow="visible"
             style="overflow:visible">
            <path
               id="path3111"
               d="M 5.03125,4.515625 C 5.03125,3.703125 5.25,1.796875 7.015625,0.53125 7.140625,0.4375 7.15625,0.421875 7.15625,0.25 7.15625,0.015625 7.140625,0.015625 6.890625,0.015625 l -0.15625,0 c -2.140625,1.15625 -2.90625,3.03125 -2.90625,4.5 l 0,4.28125 c 0,0.265625 0.015625,0.28125 0.28125,0.28125 l 0.640625,0 c 0.265625,0 0.28125,-0.015625 0.28125,-0.28125 z"
               style="stroke:none"
               inkscape:connector-curvature="0" />
          </symbol>
          <symbol
             id="textext-76cdf2b4-2"
             overflow="visible"
             style="overflow:visible">
            <path
               id="path3114"
               d="M 5.03125,0.171875 C 5.03125,-0.09375 5.015625,-0.09375 4.75,-0.09375 l -0.640625,0 c -0.265625,0 -0.28125,0 -0.28125,0.265625 l 0,2.65625 c 0,0.25 0.015625,0.265625 0.28125,0.265625 l 0.640625,0 c 0.265625,0 0.28125,-0.015625 0.28125,-0.265625 z"
               style="stroke:none"
               inkscape:connector-curvature="0" />
          </symbol>
          <symbol
             id="textext-76cdf2b4-3"
             overflow="visible"
             style="overflow:visible">
            <path
               id="path3117"
               d="m 3.828125,17.78125 c 0,0.25 0.015625,0.265625 0.28125,0.265625 l 0.640625,0 c 0.265625,0 0.28125,-0.01563 0.28125,-0.265625 l 0,-4.21875 c 0,-1.203125 -0.515625,-3.234375 -2.75,-4.59375 2.25,-1.359375 2.75,-3.421875 2.75,-4.59375 l 0,-4.203125 C 5.03125,-0.09375 5.015625,-0.09375 4.75,-0.09375 l -0.640625,0 c -0.265625,0 -0.28125,0 -0.28125,0.265625 l 0,4.21875 c 0,0.828125 -0.171875,2.90625 -2.015625,4.296875 -0.109375,0.09375 -0.125,0.109375 -0.125,0.28125 0,0.1875 0.015625,0.1875 0.125,0.28125 0.265625,0.203125 0.953125,0.734375 1.421875,1.734375 0.390625,0.796875 0.59375,1.6875 0.59375,2.578125 z"
               style="stroke:none"
               inkscape:connector-curvature="0" />
          </symbol>
          <symbol
             id="textext-76cdf2b4-4"
             overflow="visible"
             style="overflow:visible">
            <path
               id="path3120"
               d="m 6.890625,8.96875 c 0.25,0 0.265625,-0.015625 0.265625,-0.25 C 7.15625,8.546875 7.140625,8.53125 7.109375,8.5 6.796875,8.28125 6.078125,7.765625 5.609375,6.84375 5.21875,6.09375 5.03125,5.328125 5.03125,4.453125 l 0,-4.28125 C 5.03125,-0.09375 5.015625,-0.09375 4.75,-0.09375 l -0.640625,0 c -0.265625,0 -0.28125,0 -0.28125,0.265625 l 0,4.28125 c 0,1.484375 0.765625,3.359375 2.90625,4.515625 z"
               style="stroke:none"
               inkscape:connector-curvature="0" />
          </symbol>
        </g>
      </defs>
      <g
         id="textext-76cdf2b4-5">
        <g
           id="g3123"
           style="fill:#000000;fill-opacity:1">
          <use
             id="use3125"
             y="124.802"
             x="390.26199"
             xlink:href="#textext-76cdf2b4-1"
             width="1000"
             height="800" />
        </g>
        <g
           id="g3127"
           style="fill:#000000;fill-opacity:1">
          <use
             id="use3129"
             y="133.76801"
             x="390.26199"
             xlink:href="#textext-76cdf2b4-2"
             width="1000"
             height="800" />
        </g>
        <g
           id="g3131"
           style="fill:#000000;fill-opacity:1">
          <use
             id="use3133"
             y="136.757"
             x="390.26199"
             xlink:href="#textext-76cdf2b4-3"
             width="1000"
             height="800" />
        </g>
        <g
           id="g3135"
           style="fill:#000000;fill-opacity:1">
          <use
             id="use3137"
             y="154.69"
             x="390.26199"
             xlink:href="#textext-76cdf2b4-2"
             width="1000"
             height="800" />
        </g>
        <g
           id="g3139"
           style="fill:#000000;fill-opacity:1">
          <use
             id="use3141"
             y="157.679"
             x="390.26199"
             xlink:href="#textext-76cdf2b4-4"
             width="1000"
             height="800" />
        </g>
      </g>
    </g>
    <text
       xml:space="preserve"
       style="font-size:40px;font-style:normal;font-weight:normal;line-height:125%;letter-spacing:0px;word-spacing:0px;fill:#000000;fill-opacity:1;stroke:none;font-family:Sans"
       x="88"
       y="726.36212"
       id="text3227"
       sodipodi:linespacing="125%"><tspan
         sodipodi:role="line"
         id="tspan3229"
         x="88"
         y="726.36212">Pago</tspan></text>
    <g
       id="g4308"
       ns0:preamble=""
       ns0:text="\\[ \n\\left\\{ \\rule{0pt}{1.1cm} \\right.  %Change size as necessary\n\\]\n"
       transform="matrix(0,3,-3,0,885.1817,-188.17155)">
      <defs
         id="defs4310">
        <g
           id="g4312">
          <symbol
             id="textext-27de6b28-0"
             overflow="visible"
             style="overflow:visible">
            <path
               id="path4315"
               d=""
               style="stroke:none"
               inkscape:connector-curvature="0" />
          </symbol>
          <symbol
             id="textext-27de6b28-1"
             overflow="visible"
             style="overflow:visible">
            <path
               id="path4318"
               d="M 5.03125,4.515625 C 5.03125,3.703125 5.25,1.796875 7.015625,0.53125 7.140625,0.4375 7.15625,0.421875 7.15625,0.25 7.15625,0.015625 7.140625,0.015625 6.890625,0.015625 l -0.15625,0 c -2.140625,1.15625 -2.90625,3.03125 -2.90625,4.5 l 0,4.28125 c 0,0.265625 0.015625,0.28125 0.28125,0.28125 l 0.640625,0 c 0.265625,0 0.28125,-0.015625 0.28125,-0.28125 z"
               style="stroke:none"
               inkscape:connector-curvature="0" />
          </symbol>
          <symbol
             id="textext-27de6b28-2"
             overflow="visible"
             style="overflow:visible">
            <path
               id="path4321"
               d="M 5.03125,0.171875 C 5.03125,-0.09375 5.015625,-0.09375 4.75,-0.09375 l -0.640625,0 c -0.265625,0 -0.28125,0 -0.28125,0.265625 l 0,2.65625 c 0,0.25 0.015625,0.265625 0.28125,0.265625 l 0.640625,0 c 0.265625,0 0.28125,-0.015625 0.28125,-0.265625 z"
               style="stroke:none"
               inkscape:connector-curvature="0" />
          </symbol>
          <symbol
             id="textext-27de6b28-3"
             overflow="visible"
             style="overflow:visible">
            <path
               id="path4324"
               d="m 3.828125,17.78125 c 0,0.25 0.015625,0.265625 0.28125,0.265625 l 0.640625,0 c 0.265625,0 0.28125,-0.01563 0.28125,-0.265625 l 0,-4.21875 c 0,-1.203125 -0.515625,-3.234375 -2.75,-4.59375 2.25,-1.359375 2.75,-3.421875 2.75,-4.59375 l 0,-4.203125 C 5.03125,-0.09375 5.015625,-0.09375 4.75,-0.09375 l -0.640625,0 c -0.265625,0 -0.28125,0 -0.28125,0.265625 l 0,4.21875 c 0,0.828125 -0.171875,2.90625 -2.015625,4.296875 -0.109375,0.09375 -0.125,0.109375 -0.125,0.28125 0,0.1875 0.015625,0.1875 0.125,0.28125 0.265625,0.203125 0.953125,0.734375 1.421875,1.734375 0.390625,0.796875 0.59375,1.6875 0.59375,2.578125 z"
               style="stroke:none"
               inkscape:connector-curvature="0" />
          </symbol>
          <symbol
             id="textext-27de6b28-4"
             overflow="visible"
             style="overflow:visible">
            <path
               id="path4327"
               d="m 6.890625,8.96875 c 0.25,0 0.265625,-0.015625 0.265625,-0.25 C 7.15625,8.546875 7.140625,8.53125 7.109375,8.5 6.796875,8.28125 6.078125,7.765625 5.609375,6.84375 5.21875,6.09375 5.03125,5.328125 5.03125,4.453125 l 0,-4.28125 C 5.03125,-0.09375 5.015625,-0.09375 4.75,-0.09375 l -0.640625,0 c -0.265625,0 -0.28125,0 -0.28125,0.265625 l 0,4.28125 c 0,1.484375 0.765625,3.359375 2.90625,4.515625 z"
               style="stroke:none"
               inkscape:connector-curvature="0" />
          </symbol>
        </g>
      </defs>
      <g
         id="textext-27de6b28-5">
        <g
           id="g4330"
           style="fill:#000000;fill-opacity:1">
          <use
             id="use4332"
             y="126.593"
             x="390.26199"
             xlink:href="#textext-27de6b28-1"
             width="1000"
             height="800" />
        </g>
        <g
           id="g4334"
           style="fill:#000000;fill-opacity:1">
          <use
             id="use4336"
             y="135.56"
             x="390.26199"
             xlink:href="#textext-27de6b28-2"
             width="1000"
             height="800" />
        </g>
        <g
           id="g4338"
           style="fill:#000000;fill-opacity:1">
          <use
             id="use4340"
             y="138.548"
             x="390.26199"
             xlink:href="#textext-27de6b28-2"
             width="1000"
             height="800" />
        </g>
        <g
           id="g4342"
           style="fill:#000000;fill-opacity:1">
          <use
             id="use4344"
             y="141.537"
             x="390.26199"
             xlink:href="#textext-27de6b28-2"
             width="1000"
             height="800" />
        </g>
        <g
           id="g4346"
           style="fill:#000000;fill-opacity:1">
          <use
             id="use4348"
             y="144.526"
             x="390.26199"
             xlink:href="#textext-27de6b28-3"
             width="1000"
             height="800" />
        </g>
        <g
           id="g4350"
           style="fill:#000000;fill-opacity:1">
          <use
             id="use4352"
             y="162.459"
             x="390.26199"
             xlink:href="#textext-27de6b28-2"
             width="1000"
             height="800" />
        </g>
        <g
           id="g4354"
           style="fill:#000000;fill-opacity:1">
          <use
             id="use4356"
             y="165.448"
             x="390.26199"
             xlink:href="#textext-27de6b28-2"
             width="1000"
             height="800" />
        </g>
        <g
           id="g4358"
           style="fill:#000000;fill-opacity:1">
          <use
             id="use4360"
             y="168.437"
             x="390.26199"
             xlink:href="#textext-27de6b28-2"
             width="1000"
             height="800" />
        </g>
        <g
           id="g4362"
           style="fill:#000000;fill-opacity:1">
          <use
             id="use4364"
             y="171.42599"
             x="390.26199"
             xlink:href="#textext-27de6b28-4"
             width="1000"
             height="800" />
        </g>
      </g>
    </g>
    <text
       xml:space="preserve"
       style="font-size:40px;font-style:normal;font-weight:normal;text-align:center;line-height:125%;letter-spacing:0px;word-spacing:0px;text-anchor:middle;fill:#000000;fill-opacity:1;stroke:none;font-family:Sans"
       x="424"
       y="982.36212"
       id="text4484"
       sodipodi:linespacing="125%"><tspan
         sodipodi:role="line"
         id="tspan4486"
         x="424"
         y="982.36212">Deuda</tspan></text>
    <path
       style="fill:none;stroke:#000000;stroke-width:3;stroke-linecap:butt;stroke-linejoin:miter;stroke-miterlimit:4;stroke-opacity:1;stroke-dasharray:none"
       d="m 652,1022.3622 c 0.6291,-57.08261 22.69605,-82.90165 48,-104.00005"
       id="path3107"
       inkscape:connector-curvature="0"
       sodipodi:nodetypes="cc" />
  </g>
</svg>
